<svg width="593" height="224" viewBox="0 0 593 224" fill="none" xmlns="http://www.w3.org/2000/svg">
<g clip-path="url(#clip0_130_62)">
<path d="M47 176C47 176 87.264 12 114.107 12C140.949 12 154.371 107.12 181.213 107.12C208.056 107.12 226.769 12 253.612 12C280.454 12 293.5 45.3512 315.427 80.88C337.354 116.409 357.773 131.875 384.615 131.875C411.458 131.875 446 97.0962 446 97.0962" stroke="#8DD1DF" stroke-width="10"/>
<g filter="url(#filter0_d_130_62)">
<path d="M-3.5729 156.744C-3.5729 156.744 -9.05698 156.744 19.2776 156.744C47.6121 156.744 60.1655 156.744 88.5 132.62C116.835 108.496 133.784 16.333 162.118 16.333C190.453 16.333 219.907 95.4753 235.662 132.62C245.894 156.744 271.304 165.002 292.366 148.078C309.633 134.204 357 12 357 12" stroke="#CAB2D6" stroke-width="10" shape-rendering="crispEdges"/>
</g>
<path d="M300.52 162.08C303.453 162.08 306.027 162.653 308.24 163.8C310.48 164.947 312.2 166.587 313.4 168.72C314.627 170.827 315.24 173.28 315.24 176.08C315.24 178.88 314.627 181.333 313.4 183.44C312.2 185.52 310.48 187.133 308.24 188.28C306.027 189.427 303.453 190 300.52 190H290.76V162.08H300.52ZM300.32 185.24C303.253 185.24 305.52 184.44 307.12 182.84C308.72 181.24 309.52 178.987 309.52 176.08C309.52 173.173 308.72 170.907 307.12 169.28C305.52 167.627 303.253 166.8 300.32 166.8H296.36V185.24H300.32ZM317.992 178.84C317.992 176.6 318.432 174.613 319.312 172.88C320.219 171.147 321.432 169.813 322.952 168.88C324.499 167.947 326.219 167.48 328.112 167.48C329.765 167.48 331.205 167.813 332.432 168.48C333.685 169.147 334.685 169.987 335.432 171V167.84H341.072V190H335.432V186.76C334.712 187.8 333.712 188.667 332.432 189.36C331.179 190.027 329.725 190.36 328.072 190.36C326.205 190.36 324.499 189.88 322.952 188.92C321.432 187.96 320.219 186.613 319.312 184.88C318.432 183.12 317.992 181.107 317.992 178.84ZM335.432 178.92C335.432 177.56 335.165 176.4 334.632 175.44C334.099 174.453 333.379 173.707 332.472 173.2C331.565 172.667 330.592 172.4 329.552 172.4C328.512 172.4 327.552 172.653 326.672 173.16C325.792 173.667 325.072 174.413 324.512 175.4C323.979 176.36 323.712 177.507 323.712 178.84C323.712 180.173 323.979 181.347 324.512 182.36C325.072 183.347 325.792 184.107 326.672 184.64C327.579 185.173 328.539 185.44 329.552 185.44C330.592 185.44 331.565 185.187 332.472 184.68C333.379 184.147 334.099 183.4 334.632 182.44C335.165 181.453 335.432 180.28 335.432 178.92ZM353.061 172.44V183.16C353.061 183.907 353.235 184.453 353.581 184.8C353.955 185.12 354.568 185.28 355.421 185.28H358.021V190H354.501C349.781 190 347.421 187.707 347.421 183.12V172.44H344.781V167.84H347.421V162.36H353.061V167.84H358.021V172.44H353.061ZM360.609 178.84C360.609 176.6 361.049 174.613 361.929 172.88C362.836 171.147 364.049 169.813 365.569 168.88C367.116 167.947 368.836 167.48 370.729 167.48C372.382 167.48 373.822 167.813 375.049 168.48C376.302 169.147 377.302 169.987 378.049 171V167.84H383.689V190H378.049V186.76C377.329 187.8 376.329 188.667 375.049 189.36C373.796 190.027 372.342 190.36 370.689 190.36C368.822 190.36 367.116 189.88 365.569 188.92C364.049 187.96 362.836 186.613 361.929 184.88C361.049 183.12 360.609 181.107 360.609 178.84ZM378.049 178.92C378.049 177.56 377.782 176.4 377.249 175.44C376.716 174.453 375.996 173.707 375.089 173.2C374.182 172.667 373.209 172.4 372.169 172.4C371.129 172.4 370.169 172.653 369.289 173.16C368.409 173.667 367.689 174.413 367.129 175.4C366.596 176.36 366.329 177.507 366.329 178.84C366.329 180.173 366.596 181.347 367.129 182.36C367.689 183.347 368.409 184.107 369.289 184.64C370.196 185.173 371.156 185.44 372.169 185.44C373.209 185.44 374.182 185.187 375.089 184.68C375.996 184.147 376.716 183.4 377.249 182.44C377.782 181.453 378.049 180.28 378.049 178.92Z" fill="#CAB2D6"/>
<path d="M402.373 190.28C400.426 190.28 398.666 189.947 397.093 189.28C395.546 188.613 394.319 187.653 393.413 186.4C392.506 185.147 392.039 183.667 392.013 181.96H398.013C398.093 183.107 398.493 184.013 399.213 184.68C399.959 185.347 400.973 185.68 402.253 185.68C403.559 185.68 404.586 185.373 405.333 184.76C406.079 184.12 406.453 183.293 406.453 182.28C406.453 181.453 406.199 180.773 405.693 180.24C405.186 179.707 404.546 179.293 403.773 179C403.026 178.68 401.986 178.333 400.653 177.96C398.839 177.427 397.359 176.907 396.213 176.4C395.093 175.867 394.119 175.08 393.293 174.04C392.493 172.973 392.093 171.56 392.093 169.8C392.093 168.147 392.506 166.707 393.333 165.48C394.159 164.253 395.319 163.32 396.813 162.68C398.306 162.013 400.013 161.68 401.933 161.68C404.813 161.68 407.146 162.387 408.933 163.8C410.746 165.187 411.746 167.133 411.933 169.64H405.773C405.719 168.68 405.306 167.893 404.533 167.28C403.786 166.64 402.786 166.32 401.533 166.32C400.439 166.32 399.559 166.6 398.893 167.16C398.253 167.72 397.933 168.533 397.933 169.6C397.933 170.347 398.173 170.973 398.653 171.48C399.159 171.96 399.773 172.36 400.493 172.68C401.239 172.973 402.279 173.32 403.613 173.72C405.426 174.253 406.906 174.787 408.053 175.32C409.199 175.853 410.186 176.653 411.013 177.72C411.839 178.787 412.253 180.187 412.253 181.92C412.253 183.413 411.866 184.8 411.093 186.08C410.319 187.36 409.186 188.387 407.693 189.16C406.199 189.907 404.426 190.28 402.373 190.28ZM415.668 178.92C415.668 176.627 416.134 174.627 417.068 172.92C418.001 171.187 419.294 169.853 420.948 168.92C422.601 167.96 424.494 167.48 426.628 167.48C429.374 167.48 431.641 168.173 433.428 169.56C435.241 170.92 436.454 172.84 437.068 175.32H431.028C430.708 174.36 430.161 173.613 429.388 173.08C428.641 172.52 427.708 172.24 426.588 172.24C424.988 172.24 423.721 172.827 422.788 174C421.854 175.147 421.388 176.787 421.388 178.92C421.388 181.027 421.854 182.667 422.788 183.84C423.721 184.987 424.988 185.56 426.588 185.56C428.854 185.56 430.334 184.547 431.028 182.52H437.068C436.454 184.92 435.241 186.827 433.428 188.24C431.614 189.653 429.348 190.36 426.628 190.36C424.494 190.36 422.601 189.893 420.948 188.96C419.294 188 418.001 186.667 417.068 184.96C416.134 183.227 415.668 181.213 415.668 178.92ZM444.01 165.2C443.023 165.2 442.197 164.893 441.53 164.28C440.89 163.64 440.57 162.853 440.57 161.92C440.57 160.987 440.89 160.213 441.53 159.6C442.197 158.96 443.023 158.64 444.01 158.64C444.997 158.64 445.81 158.96 446.45 159.6C447.117 160.213 447.45 160.987 447.45 161.92C447.45 162.853 447.117 163.64 446.45 164.28C445.81 164.893 444.997 165.2 444.01 165.2ZM446.77 167.84V190H441.17V167.84H446.77ZM472.903 178.44C472.903 179.24 472.85 179.96 472.743 180.6H456.543C456.676 182.2 457.236 183.453 458.223 184.36C459.21 185.267 460.423 185.72 461.863 185.72C463.943 185.72 465.423 184.827 466.303 183.04H472.343C471.703 185.173 470.476 186.933 468.663 188.32C466.85 189.68 464.623 190.36 461.983 190.36C459.85 190.36 457.93 189.893 456.223 188.96C454.543 188 453.223 186.653 452.263 184.92C451.33 183.187 450.863 181.187 450.863 178.92C450.863 176.627 451.33 174.613 452.263 172.88C453.196 171.147 454.503 169.813 456.183 168.88C457.863 167.947 459.796 167.48 461.983 167.48C464.09 167.48 465.97 167.933 467.623 168.84C469.303 169.747 470.596 171.04 471.503 172.72C472.436 174.373 472.903 176.28 472.903 178.44ZM467.103 176.84C467.076 175.4 466.556 174.253 465.543 173.4C464.53 172.52 463.29 172.08 461.823 172.08C460.436 172.08 459.263 172.507 458.303 173.36C457.37 174.187 456.796 175.347 456.583 176.84H467.103ZM489.27 167.52C491.91 167.52 494.044 168.36 495.67 170.04C497.297 171.693 498.11 174.013 498.11 177V190H492.51V177.76C492.51 176 492.07 174.653 491.19 173.72C490.31 172.76 489.11 172.28 487.59 172.28C486.044 172.28 484.817 172.76 483.91 173.72C483.03 174.653 482.59 176 482.59 177.76V190H476.99V167.84H482.59V170.6C483.337 169.64 484.284 168.893 485.43 168.36C486.604 167.8 487.884 167.52 489.27 167.52ZM501.996 178.92C501.996 176.627 502.462 174.627 503.396 172.92C504.329 171.187 505.622 169.853 507.276 168.92C508.929 167.96 510.822 167.48 512.956 167.48C515.702 167.48 517.969 168.173 519.756 169.56C521.569 170.92 522.782 172.84 523.396 175.32H517.356C517.036 174.36 516.489 173.613 515.716 173.08C514.969 172.52 514.036 172.24 512.916 172.24C511.316 172.24 510.049 172.827 509.116 174C508.182 175.147 507.716 176.787 507.716 178.92C507.716 181.027 508.182 182.667 509.116 183.84C510.049 184.987 511.316 185.56 512.916 185.56C515.182 185.56 516.662 184.547 517.356 182.52H523.396C522.782 184.92 521.569 186.827 519.756 188.24C517.942 189.653 515.676 190.36 512.956 190.36C510.822 190.36 508.929 189.893 507.276 188.96C505.622 188 504.329 186.667 503.396 184.96C502.462 183.227 501.996 181.213 501.996 178.92ZM548.098 178.44C548.098 179.24 548.045 179.96 547.938 180.6H531.738C531.872 182.2 532.432 183.453 533.418 184.36C534.405 185.267 535.618 185.72 537.058 185.72C539.138 185.72 540.618 184.827 541.498 183.04H547.538C546.898 185.173 545.672 186.933 543.858 188.32C542.045 189.68 539.818 190.36 537.178 190.36C535.045 190.36 533.125 189.893 531.418 188.96C529.738 188 528.418 186.653 527.458 184.92C526.525 183.187 526.058 181.187 526.058 178.92C526.058 176.627 526.525 174.613 527.458 172.88C528.392 171.147 529.698 169.813 531.378 168.88C533.058 167.947 534.992 167.48 537.178 167.48C539.285 167.48 541.165 167.933 542.818 168.84C544.498 169.747 545.792 171.04 546.698 172.72C547.632 174.373 548.098 176.28 548.098 178.44ZM542.298 176.84C542.272 175.4 541.752 174.253 540.738 173.4C539.725 172.52 538.485 172.08 537.018 172.08C535.632 172.08 534.458 172.507 533.498 173.36C532.565 174.187 531.992 175.347 531.778 176.84H542.298Z" fill="#8DD1DF"/>
</g>
<defs>
<filter id="filter0_d_130_62" x="-8" y="10.1939" width="373.661" height="159.807" filterUnits="userSpaceOnUse" color-interpolation-filters="sRGB">
<feFlood flood-opacity="0" result="BackgroundImageFix"/>
<feColorMatrix in="SourceAlpha" type="matrix" values="0 0 0 0 0 0 0 0 0 0 0 0 0 0 0 0 0 0 127 0" result="hardAlpha"/>
<feOffset dy="4"/>
<feGaussianBlur stdDeviation="2"/>
<feComposite in2="hardAlpha" operator="out"/>
<feColorMatrix type="matrix" values="0 0 0 0 0 0 0 0 0 0 0 0 0 0 0 0 0 0 0.25 0"/>
<feBlend mode="normal" in2="BackgroundImageFix" result="effect1_dropShadow_130_62"/>
<feBlend mode="normal" in="SourceGraphic" in2="effect1_dropShadow_130_62" result="shape"/>
</filter>
<clipPath id="clip0_130_62">
<rect width="593" height="224" fill="white"/>
</clipPath>
</defs>
</svg>
